HIERARCHY
ROOT Hips
{
  OFFSET 267.745 86.9975 -272.335
  CHANNELS 6 Xposition Yposition Zposition Zrotation Xrotation Yrotation
  JOINT LeftUpLeg
  {
    OFFSET 8.64259 1.95398 -2.38835
    CHANNELS 3 Zrotation Xrotation Yrotation
    JOINT LeftLeg
    {
      OFFSET 43.7702 0 0
      CHANNELS 3 Zrotation Xrotation Yrotation
      JOINT LeftFoot
      {
        OFFSET 40.6238 0 0
        CHANNELS 3 Zrotation Xrotation Yrotation
        JOINT LeftToeBase
        {
          OFFSET 12.7242 0 0
          CHANNELS 3 Zrotation Xrotation Yrotation
          End Site
          {
            OFFSET 0 0 0
          }
        }
      }
    }
  }
  JOINT RightUpLeg
  {
    OFFSET -8.2249 1.95398 -2.59336
    CHANNELS 3 Zrotation Xrotation Yrotation
    JOINT RightLeg
    {
      OFFSET 43.5653 0 0
      CHANNELS 3 Zrotation Xrotation Yrotation
      JOINT RightFoot
      {
        OFFSET 40.6238 0 0
        CHANNELS 3 Zrotation Xrotation Yrotation
        JOINT RightToeBase
        {
          OFFSET 12.7242 0 0
          CHANNELS 3 Zrotation Xrotation Yrotation
          End Site
          {
            OFFSET 0 0 0
          }
        }
      }
    }
  }
  JOINT Spine
  {
    OFFSET 0.165834 0.87714 6.61349
    CHANNELS 3 Zrotation Xrotation Yrotation
    JOINT Spine1
    {
      OFFSET 7.38963 1.71661e-005 0
      CHANNELS 3 Zrotation Xrotation Yrotation
      JOINT Spine2
      {
        OFFSET 11.9445 1.14441e-005 0
        CHANNELS 3 Zrotation Xrotation Yrotation
        JOINT Spine3
        {
          OFFSET 14.7254 4.19617e-005 0
          CHANNELS 3 Zrotation Xrotation Yrotation
          JOINT Spine4
          {
            OFFSET 10.9679 0 0
            CHANNELS 3 Zrotation Xrotation Yrotation
            JOINT RightShoulder
            {
              OFFSET 2.46616 -1.6653 3.69651
              CHANNELS 3 Zrotation Xrotation Yrotation
              JOINT RightArm
              {
                OFFSET 13.0012 0 0
                CHANNELS 3 Zrotation Xrotation Yrotation
                JOINT RightForeArm
                {
                  OFFSET 28.7848 1.52588e-005 0
                  CHANNELS 3 Zrotation Xrotation Yrotation
                  JOINT RightHand
                  {
                    OFFSET 26.5688 1.52588e-005 0
                    CHANNELS 3 Zrotation Xrotation Yrotation
                    End Site
                    {
                      OFFSET 0 0 0
                    }
                  }
                }
              }
            }
            JOINT LeftShoulder
            {
              OFFSET 2.38034 -1.29275 -3.7523
              CHANNELS 3 Zrotation Xrotation Yrotation
              JOINT LeftArm
              {
                OFFSET 16.3182 6.10352e-005 0
                CHANNELS 3 Zrotation Xrotation Yrotation
                JOINT LeftForeArm
                {
                  OFFSET 27.0901 0 0
                  CHANNELS 3 Zrotation Xrotation Yrotation
                  JOINT LeftHand
                  {
                    OFFSET 24.5451 1.52588e-005 0
                    CHANNELS 3 Zrotation Xrotation Yrotation
                    End Site
                    {
                      OFFSET 0 0 0
                    }
                  }
                }
              }
            }
            JOINT Neck
            {
              OFFSET 5.0226 -0.0266342 0
              CHANNELS 3 Zrotation Xrotation Yrotation
              JOINT Head
              {
                OFFSET 6.69364 2.86102e-005 0
                CHANNELS 3 Zrotation Xrotation Yrotation
                End Site
                {
                  OFFSET 0 0 0
                }
              }
            }
          }
        }
      }
    }
  }
}
MOTION
Frames:	9
Frame Time:	0.0416667
167.625 95.4542 -179.39 -99.191 -44.7756 -94.522 -179.227 17.7979 88.6814 -8.7635 11.1905 2.01441 52.1389 -2.00139 6.7607 42.3865 -1.49907 7.38124 174.334 -9.06506 88.4025 -31.8014 -11.9279 -1.48969 64.798 4.59719 19.5427 47.9693 -4.10509 7.37745 0.949092 7.64781 -90.4129 11.586 1.69469 -0.997812 -0.0842458 1.64916 -1.07145 -22.6274 1.91621 -0.442212 -2.61478 1.91622 -0.442221 102.464 -44.8837 -81.6659 32.5973 -9.93221 -9.33594 -9.53635 -15.2681 -33.9531 -12.7924 -0.498114 -0.678741 -80.4881 -51.6264 92.9267 -33.0848 -10.625 -2.46224 5.58904 44.7283 -5.98008 -9.28532 -0.0842437 -4.47425 6.8192 -0.0426063 -4.37077 -26.438 -0.360389 6.00279 
160.497 94.1196 -171.28 -100.825 -45.7405 -98.0268 -179.582 20.8299 85.6184 -27.6581 15.1034 2.01989 53.7537 -3.47464 10.6069 42.5511 -1.48939 2.14305 172.578 -7.75576 83.4694 -41.4703 -12.4351 -1.90205 46.2329 12.1201 24.6458 49.8269 -3.00631 21.5603 0.745092 7.63508 -89.9071 11.6044 1.52578 0.0287293 -0.0656237 1.52558 -0.0384768 -22.6075 1.44659 0.48606 -2.5948 1.4466 0.486066 102.329 -46.0836 -81.8965 34.2535 -8.75238 -5.2617 -7.62947 -17.7154 -28.2197 -12.133 -0.615028 0.765036 -80.6482 -51.559 92.6843 -31.602 -10.2701 -3.25949 5.25258 44.3066 -5.93227 -8.85403 -0.10911 -4.04857 6.93111 -0.14387 -4.76468 -26.964 -0.235389 5.15311 
154.085 94.2792 -164.052 -103.048 -47.0998 -101.227 -179.3 15.7158 82.9913 -33.7887 15.4914 2.30067 61.2707 2.68725 16.4411 37.9611 -0.922143 -3.47234 173.549 4.14859 83.3785 -61.9531 -17.2077 -2.2529 40.7868 13.7185 15.5107 38.2941 -2.34655 14.9022 0.3404 7.87401 -89.6271 11.1212 0.850614 0.657183 -0.549602 0.8787 0.619101 -23.0845 0.613777 0.882433 -3.0718 0.613786 0.88244 102.377 -46.3351 -81.8187 35.7794 -7.32301 -4.15135 -5.75122 -21.3784 -21.3546 -8.22696 -0.452652 1.21307 -81.3317 -51.1287 91.6379 -32.1063 -8.07746 -8.97365 5.68649 43.8914 -7.09843 -8.14938 -0.140253 -3.30969 8.78723 0.704141 -4.57128 -27.251 0.40575 6.26305 
147.544 95.637 -156.974 -104.766 -49.8002 -100.552 -178.705 7.98482 85.5092 -33.289 17.6422 3.82732 65.5813 6.42934 16.6348 39.8694 -1.17987 -2.97486 173.014 15.6268 87.7336 -65.1331 -15.9359 -0.744952 49.1545 9.43155 14.3624 33.8246 -1.66918 9.40611 -0.138634 7.93805 -89.8801 10.9998 -0.220352 0.260713 -0.671116 -0.208672 0.270148 -23.2063 -0.288527 0.182431 -3.1937 -0.288527 0.182423 102.305 -46.4146 -81.9369 36.8725 -5.22015 -1.42532 -4.38265 -22.3381 -17.6822 -5.69057 -0.296888 0.996245 -81.0682 -50.2395 91.9814 -32.5328 -4.55242 -15.9968 7.32423 42.824 -10.6502 -6.79756 -0.102394 -4.14412 7.25832 1.53733 -3.92072 -27.9535 0.903972 6.67921 
141.155 96.5327 -150.298 -105.144 -52.4015 -99.7209 -177.099 -0.0256667 87.6483 -29.7242 21.3314 4.31589 67.6263 8.9784 16.9724 41.4864 -1.40975 -2.15277 172.118 21.3074 89.6089 -50.1517 -8.74333 1.46849 53.7948 7.22496 15.7722 37.826 -2.27925 6.68671 -0.449091 7.83621 -90.0681 11.2016 -0.925416 -0.0447724 -0.469031 -0.926467 -0.00400715 -23.0066 -0.869166 -0.320848 -2.99393 -0.869173 -0.320854 102.398 -47.554 -81.7903 36.1865 -4.23228 3.51306 -4.28747 -22.0772 -17.7697 -6.15883 -0.290429 0.340493 -80.7735 -49.0959 92.3661 -31.5574 0.85774 -20.9965 9.97876 36.8224 -18.8356 -3.4245 -0.0942709 -3.96092 5.6634 1.39469 -5.41643 -27.4102 0.788437 7.80633 
134.807 96.6887 -143.815 -104.142 -56.2006 -100.222 -176.358 -6.41165 88.9382 -25.3208 23.1442 4.62722 67.9724 9.8035 14.479 44.8114 -1.74899 1.33749 173.994 19.9269 87.4576 -21.158 0.467136 1.69799 55.0376 7.9173 20.2458 31.4155 -0.507834 -2.3419 -0.772563 7.71666 -90.0312 11.4424 -1.55171 0.0950366 -0.227647 -1.54601 0.163246 -22.77 -1.5085 -0.375815 -2.75732 -1.5085 -0.375817 102.943 -48.0527 -80.9215 36.268 -1.48619 5.75355 -4.29539 -22.7709 -16.7007 -5.62031 -0.297096 1.09125 -81.7952 -48.9148 90.7842 -28.4382 4.82398 -25.8088 12.2252 32.1208 -26.2382 -2.97563 -0.0961911 -4.48623 6.58485 1.28143 -6.48351 -27.2962 0.927814 7.87121 
127.993 96.2364 -137.072 -104.886 -59.3691 -102.374 -176.251 -11.4066 90.0284 -26.2077 27.357 5.93033 65.4354 8.10373 11.8628 52.1201 -2.22733 4.15566 176.933 18.9457 85.2646 -10.3446 4.95102 -0.67157 56.3009 8.92294 22.7566 27.1733 0.946439 -5.36615 -1.02954 7.68134 -89.9955 11.515 -2.04609 0.218318 -0.154363 -2.03447 0.30818 -22.7022 -2.01708 -0.406974 -2.68954 -2.01708 -0.406969 103.403 -47.9797 -80.1844 36.5345 0.472129 5.31557 -2.97778 -24.2507 -12.8049 -4.58724 -0.256822 1.46115 -81.3692 -48.3145 91.3976 -28.7375 6.53642 -28.9837 13.9011 31.1478 -29.6328 -1.54926 -0.095363 -4.81068 8.03965 0.893681 -6.43439 -27.2744 0.654973 7.66159 
120.108 95.1912 -129.314 -103.908 -59.1284 -99.4812 -177.968 -11.5788 92.4784 -35.8925 23.2357 7.90777 57.9599 0.618983 1.3077 63.145 -3.46967 2.35937 175.103 19.5896 87.6778 -18.9534 -2.02046 2.01154 51.046 10.56 14.2233 30.2895 -0.220992 -1.70222 -0.913849 7.48249 -90.4849 11.904 -2.04537 -0.745096 0.23449 -2.0762 -0.654318 -22.3089 -1.72687 -1.32548 -2.29627 -1.72688 -1.32549 103.067 -47.5532 -80.7146 35.2683 0.917434 4.65868 -1.77766 -25.145 -10.0323 -3.58758 -0.215207 2.23469 -81.2833 -50.3093 91.6604 -28.8065 6.49369 -24.5414 14.0487 30.4196 -30.6571 -1.65733 -0.0930518 -4.80564 8.95817 1.67543 -3.37649 -29.6956 0.973524 6.22551 
112.778 94.4004 -122.055 -104.055 -57.066 -97.0814 -179.071 -2.90327 94.7805 -54.1121 17.4501 6.5962 43.7597 -7.51596 2.52592 58.4942 -4.59764 -8.6327 174.155 20.0656 90.7904 -33.1771 -4.97274 3.85852 58.6991 7.53068 10.2119 23.2612 1.18111 1.40229 -0.4999 7.41765 -91.015 12.0232 -1.47295 -1.86421 0.351804 -1.55356 -1.79761 -22.1754 -0.84475 -2.22056 -2.1627 -0.844734 -2.22056 103.388 -46.9235 -80.1811 33.8052 -0.245987 3.47278 -2.38058 -24.1605 -12.2219 -5.53299 -0.40176 3.61576 -81.583 -50.4171 91.2134 -32.0129 5.54622 -18.179 13.285 33.7705 -27.5589 -2.39178 -0.0905077 -4.35513 9.11099 1.78513 -3.16831 -30.6155 0.751221 7.21599 
